<svg xmlns="http://www.w3.org/2000/svg" x="0" y="0" viewBox="0 0 1000 1000" width="50" height="50">
<g><path d="M489.6,346.8l40.3,4.6c-3.1,10.7-10.7,40.4-25.7,40.4h191.9v52.1H591.9V496h104.3v26H591.9v104.7c0-5.9,35.2-13.7,49.4-24.2l-9.6-38.4l55.4-17.1l33.5,79.9c0.5-0.1,1.1-0.2,1.7-0.2V391.8C722.2,300.6,644.8,291.2,489.6,346.8z M499.9,10C229.3,10,10,229.4,10,500c0,270.6,219.4,490,490,490c270.6,0,490-219.3,490-490C990,229.4,770.6,10,499.9,10z M274.3,245.6c33.7,0,61.1,24.6,61.1,54.8c0,30.1-27.3,54.8-61.1,54.8c-33.7,0-61.1-24.6-61.1-54.8C213.2,270.2,240.6,245.6,274.3,245.6z M325.3,574.5c-16.1,50-12.1,31.4-76.1,170.5l-92.7-57.8c0,0,103.4-94.1,124.6-137.1c22.4-45.3-24.8-69.5-24.8-69.5l-71-44.3l38.3-59.1c53.5,39.7,57.6,43.1,93.7,79.3C345.3,484.6,341.8,523.5,325.3,574.5z M829.1,639.3C811,809,590.5,745.9,590.5,745.9l11.9-48.5l42.8,11c53.7,3.4,71.3-21.7,76.4-44.1l-56.2,23l-11.9-44.7c-30.2,23.2-93,56.6-202.6,53.7c-117.2,3-87.1-139.3-87.1-139.3l3-8.8h82.3c-0.6,26-7.7,52.9,2.1,68.2c7.9,12.6,23.4,18.3,36.4,19V522H357.3v-26h58.1l-36-31.4c25.6-27,51.2-69.5,67-98.1c-12.9,5.2-26.2,10.8-39.7,16.8c-13.5,16.8-28.7,34.2-45.7,51.3c0.6,0.9-58.9-33.4-58.9-33.4c61.5-52.6,96-165.1,96-165.1l85.6,24c0,0-7.2,16.7-21.7,42.1c342.6-97,362.5,59.5,362.5,59.5S847.2,469.8,829.1,639.3z M487.6,443.8h-20.8c-26.2,25.4-50.1,50.9-51.3,52.1h72.1V443.8L487.6,443.8z M721.7,663.8c0,0.2-0.1,0.3-0.1,0.5l0.9-0.4C722.2,663.9,721.9,663.8,721.7,663.8z M415.5,496h-0.1H415.5C415.5,496,415.5,496,415.5,496z M488,635.4c-0.1,0-0.2,0-0.4,0v3.9C487.6,639.3,489.5,635.7,488,635.4z"/></g>
</svg>